TITLE ""
FILE "LR_black_phrase_E_02.mp3" MP3
  TRACK 01 AUDIO
    TITLE "LR_black_phrase_E_02_001"
    INDEX 01 00:00:00
  TRACK 02 AUDIO
    TITLE "LR_black_phrase_E_02_002"
    INDEX 01 00:00:18
  TRACK 03 AUDIO
    TITLE "LR_black_phrase_E_02_003"
    INDEX 01 00:01:43
  TRACK 04 AUDIO
    TITLE "LR_black_phrase_E_02_004"
    INDEX 01 00:01:72
  TRACK 05 AUDIO
    TITLE "LR_black_phrase_E_02_005"
    INDEX 01 00:04:14
  TRACK 06 AUDIO
    TITLE "LR_black_phrase_E_02_006"
    INDEX 01 00:04:67
  TRACK 07 AUDIO
    TITLE "LR_black_phrase_E_02_007"
    INDEX 01 00:07:08
  TRACK 08 AUDIO
    TITLE "LR_black_phrase_E_02_008"
    INDEX 01 00:08:04
  TRACK 09 AUDIO
    TITLE "LR_black_phrase_E_02_009"
    INDEX 01 00:09:09
  TRACK 10 AUDIO
    TITLE "LR_black_phrase_E_02_010"
    INDEX 01 00:09:39
  TRACK 11 AUDIO
    TITLE "LR_black_phrase_E_02_011"
    INDEX 01 00:11:41
  TRACK 12 AUDIO
    TITLE "LR_black_phrase_E_02_012"
    INDEX 01 00:12:19
  TRACK 13 AUDIO
    TITLE "LR_black_phrase_E_02_013"
    INDEX 01 00:14:22
  TRACK 14 AUDIO
    TITLE "LR_black_phrase_E_02_014"
    INDEX 01 00:15:27
  TRACK 15 AUDIO
    TITLE "LR_black_phrase_E_02_015"
    INDEX 01 00:16:52
  TRACK 16 AUDIO
    TITLE "LR_black_phrase_E_02_016"
    INDEX 01 00:17:07
  TRACK 17 AUDIO
    TITLE "LR_black_phrase_E_02_017"
    INDEX 01 00:19:17
  TRACK 18 AUDIO
    TITLE "LR_black_phrase_E_02_018"
    INDEX 01 00:19:74
  TRACK 19 AUDIO
    TITLE "LR_black_phrase_E_02_019"
    INDEX 01 00:22:10
  TRACK 20 AUDIO
    TITLE "LR_black_phrase_E_02_020"
    INDEX 01 00:23:17
  TRACK 21 AUDIO
    TITLE "LR_black_phrase_E_02_021"
    INDEX 01 00:24:36
  TRACK 22 AUDIO
    TITLE "LR_black_phrase_E_02_022"
    INDEX 01 00:24:64
  TRACK 23 AUDIO
    TITLE "LR_black_phrase_E_02_023"
    INDEX 01 00:27:23
  TRACK 24 AUDIO
    TITLE "LR_black_phrase_E_02_024"
    INDEX 01 00:27:70
  TRACK 25 AUDIO
    TITLE "LR_black_phrase_E_02_025"
    INDEX 01 00:30:27
  TRACK 26 AUDIO
    TITLE "LR_black_phrase_E_02_026"
    INDEX 01 00:31:25
  TRACK 27 AUDIO
    TITLE "LR_black_phrase_E_02_027"
    INDEX 01 00:32:44
  TRACK 28 AUDIO
    TITLE "LR_black_phrase_E_02_028"
    INDEX 01 00:32:71
  TRACK 29 AUDIO
    TITLE "LR_black_phrase_E_02_029"
    INDEX 01 00:34:54
  TRACK 30 AUDIO
    TITLE "LR_black_phrase_E_02_030"
    INDEX 01 00:35:32
  TRACK 31 AUDIO
    TITLE "LR_black_phrase_E_02_031"
    INDEX 01 00:37:13
  TRACK 32 AUDIO
    TITLE "LR_black_phrase_E_02_032"
    INDEX 01 00:38:17
  TRACK 33 AUDIO
    TITLE "LR_black_phrase_E_02_033"
    INDEX 01 00:39:38
  TRACK 34 AUDIO
    TITLE "LR_black_phrase_E_02_034"
    INDEX 01 00:39:65
  TRACK 35 AUDIO
    TITLE "LR_black_phrase_E_02_035"
    INDEX 01 00:41:56
  TRACK 36 AUDIO
    TITLE "LR_black_phrase_E_02_036"
    INDEX 01 00:42:32
  TRACK 37 AUDIO
    TITLE "LR_black_phrase_E_02_037"
    INDEX 01 00:44:21
  TRACK 38 AUDIO
    TITLE "LR_black_phrase_E_02_038"
    INDEX 01 00:45:25
  TRACK 39 AUDIO
    TITLE "LR_black_phrase_E_02_039"
    INDEX 01 00:46:42
  TRACK 40 AUDIO
    TITLE "LR_black_phrase_E_02_040"
    INDEX 01 00:46:71
  TRACK 41 AUDIO
    TITLE "LR_black_phrase_E_02_041"
    INDEX 01 00:48:72
  TRACK 42 AUDIO
    TITLE "LR_black_phrase_E_02_042"
    INDEX 01 00:49:52
  TRACK 43 AUDIO
    TITLE "LR_black_phrase_E_02_043"
    INDEX 01 00:51:51
  TRACK 44 AUDIO
    TITLE "LR_black_phrase_E_02_044"
    INDEX 01 00:52:58
  TRACK 45 AUDIO
    TITLE "LR_black_phrase_E_02_045"
    INDEX 01 00:54:06
  TRACK 46 AUDIO
    TITLE "LR_black_phrase_E_02_046"
    INDEX 01 00:54:33
  TRACK 47 AUDIO
    TITLE "LR_black_phrase_E_02_047"
    INDEX 01 00:56:72
  TRACK 48 AUDIO
    TITLE "LR_black_phrase_E_02_048"
    INDEX 01 00:57:49
  TRACK 49 AUDIO
    TITLE "LR_black_phrase_E_02_049"
    INDEX 01 01:00:12
  TRACK 50 AUDIO
    TITLE "LR_black_phrase_E_02_050"
    INDEX 01 01:01:14
  TRACK 51 AUDIO
    TITLE "LR_black_phrase_E_02_051"
    INDEX 01 01:02:31
  TRACK 52 AUDIO
    TITLE "LR_black_phrase_E_02_052"
    INDEX 01 01:02:62
  TRACK 53 AUDIO
    TITLE "LR_black_phrase_E_02_053"
    INDEX 01 01:04:67
  TRACK 54 AUDIO
    TITLE "LR_black_phrase_E_02_054"
    INDEX 01 01:05:47
  TRACK 55 AUDIO
    TITLE "LR_black_phrase_E_02_055"
    INDEX 01 01:07:52
  TRACK 56 AUDIO
    TITLE "LR_black_phrase_E_02_056"
    INDEX 01 01:08:57
  TRACK 57 AUDIO
    TITLE "LR_black_phrase_E_02_057"
    INDEX 01 01:10:07
  TRACK 58 AUDIO
    TITLE "LR_black_phrase_E_02_058"
    INDEX 01 01:10:36
  TRACK 59 AUDIO
    TITLE "LR_black_phrase_E_02_059"
    INDEX 01 01:13:05
  TRACK 60 AUDIO
    TITLE "LR_black_phrase_E_02_060"
    INDEX 01 01:13:56
  TRACK 61 AUDIO
    TITLE "LR_black_phrase_E_02_061"
    INDEX 01 01:16:25
  TRACK 62 AUDIO
    TITLE "LR_black_phrase_E_02_062"
    INDEX 01 01:17:27
  TRACK 63 AUDIO
    TITLE "LR_black_phrase_E_02_063"
    INDEX 01 01:18:40
  TRACK 64 AUDIO
    TITLE "LR_black_phrase_E_02_064"
    INDEX 01 01:19:06
  TRACK 65 AUDIO
    TITLE "LR_black_phrase_E_02_065"
    INDEX 01 01:21:13
  TRACK 66 AUDIO
    TITLE "LR_black_phrase_E_02_066"
    INDEX 01 01:21:70
  TRACK 67 AUDIO
    TITLE "LR_black_phrase_E_02_067"
    INDEX 01 01:23:72
  TRACK 68 AUDIO
    TITLE "LR_black_phrase_E_02_068"
    INDEX 01 01:25:05
  TRACK 69 AUDIO
    TITLE "LR_black_phrase_E_02_069"
    INDEX 01 01:26:26
  TRACK 70 AUDIO
    TITLE "LR_black_phrase_E_02_070"
    INDEX 01 01:26:57
  TRACK 71 AUDIO
    TITLE "LR_black_phrase_E_02_071"
    INDEX 01 01:28:36
  TRACK 72 AUDIO
    TITLE "LR_black_phrase_E_02_072"
    INDEX 01 01:29:16
  TRACK 73 AUDIO
    TITLE "LR_black_phrase_E_02_073"
    INDEX 01 01:30:74
  TRACK 74 AUDIO
    TITLE "LR_black_phrase_E_02_074"
    INDEX 01 01:32:05
  TRACK 75 AUDIO
    TITLE "LR_black_phrase_E_02_075"
    INDEX 01 01:33:37
  TRACK 76 AUDIO
    TITLE "LR_black_phrase_E_02_076"
    INDEX 01 01:33:53
  TRACK 77 AUDIO
    TITLE "LR_black_phrase_E_02_077"
    INDEX 01 01:36:08
  TRACK 78 AUDIO
    TITLE "LR_black_phrase_E_02_078"
    INDEX 01 01:36:55
  TRACK 79 AUDIO
    TITLE "LR_black_phrase_E_02_079"
    INDEX 01 01:39:11
  TRACK 80 AUDIO
    TITLE "LR_black_phrase_E_02_080"
    INDEX 01 01:40:16
  TRACK 81 AUDIO
    TITLE "LR_black_phrase_E_02_081"
    INDEX 01 01:41:39
  TRACK 82 AUDIO
    TITLE "LR_black_phrase_E_02_082"
    INDEX 01 01:41:66
  TRACK 83 AUDIO
    TITLE "LR_black_phrase_E_02_083"
    INDEX 01 01:44:45
  TRACK 84 AUDIO
    TITLE "LR_black_phrase_E_02_084"
    INDEX 01 01:45:27
  TRACK 85 AUDIO
    TITLE "LR_black_phrase_E_02_085"
    INDEX 01 01:48:04
  TRACK 86 AUDIO
    TITLE "LR_black_phrase_E_02_086"
    INDEX 01 01:49:07
  TRACK 87 AUDIO
    TITLE "LR_black_phrase_E_02_087"
    INDEX 01 01:50:14
  TRACK 88 AUDIO
    TITLE "LR_black_phrase_E_02_088"
    INDEX 01 01:50:36
  TRACK 89 AUDIO
    TITLE "LR_black_phrase_E_02_089"
    INDEX 01 01:52:25
  TRACK 90 AUDIO
    TITLE "LR_black_phrase_E_02_090"
    INDEX 01 01:53:01
  TRACK 91 AUDIO
    TITLE "LR_black_phrase_E_02_091"
    INDEX 01 01:54:65
  TRACK 92 AUDIO
    TITLE "LR_black_phrase_E_02_092"
    INDEX 01 01:55:66
  TRACK 93 AUDIO
    TITLE "LR_black_phrase_E_02_093"
    INDEX 01 01:57:07
  TRACK 94 AUDIO
    TITLE "LR_black_phrase_E_02_094"
    INDEX 01 01:57:26
  TRACK 95 AUDIO
    TITLE "LR_black_phrase_E_02_095"
    INDEX 01 01:59:64
  TRACK 96 AUDIO
    TITLE "LR_black_phrase_E_02_096"
    INDEX 01 02:00:28
  TRACK 97 AUDIO
    TITLE "LR_black_phrase_E_02_097"
    INDEX 01 02:02:66
  TRACK 98 AUDIO
    TITLE "LR_black_phrase_E_02_098"
    INDEX 01 02:03:64
  TRACK 99 AUDIO
    TITLE "LR_black_phrase_E_02_099"
    INDEX 01 02:05:06
  TRACK 100 AUDIO
    TITLE "LR_black_phrase_E_02_100"
    INDEX 01 02:05:30
  TRACK 101 AUDIO
    TITLE "LR_black_phrase_E_02_101"
    INDEX 01 02:07:27
  TRACK 102 AUDIO
    TITLE "LR_black_phrase_E_02_102"
    INDEX 01 02:08:02
  TRACK 103 AUDIO
    TITLE "LR_black_phrase_E_02_103"
    INDEX 01 02:09:74
  TRACK 104 AUDIO
    TITLE "LR_black_phrase_E_02_104"
    INDEX 01 02:11:07
  TRACK 105 AUDIO
    TITLE "LR_black_phrase_E_02_105"
    INDEX 01 02:12:32
  TRACK 106 AUDIO
    TITLE "LR_black_phrase_E_02_106"
    INDEX 01 02:12:57
  TRACK 107 AUDIO
    TITLE "LR_black_phrase_E_02_107"
    INDEX 01 02:14:48
  TRACK 108 AUDIO
    TITLE "LR_black_phrase_E_02_108"
    INDEX 01 02:15:24
  TRACK 109 AUDIO
    TITLE "LR_black_phrase_E_02_109"
    INDEX 01 02:17:15
  TRACK 110 AUDIO
    TITLE "LR_black_phrase_E_02_110"
    INDEX 01 02:18:19
  TRACK 111 AUDIO
    TITLE "LR_black_phrase_E_02_111"
    INDEX 01 02:19:45
  TRACK 112 AUDIO
    TITLE "LR_black_phrase_E_02_112"
    INDEX 01 02:19:59
  TRACK 113 AUDIO
    TITLE "LR_black_phrase_E_02_113"
    INDEX 01 02:21:42
  TRACK 114 AUDIO
    TITLE "LR_black_phrase_E_02_114"
    INDEX 01 02:22:14
  TRACK 115 AUDIO
    TITLE "LR_black_phrase_E_02_115"
    INDEX 01 02:23:73
  TRACK 116 AUDIO
    TITLE "LR_black_phrase_E_02_116"
    INDEX 01 02:25:01
  TRACK 117 AUDIO
    TITLE "LR_black_phrase_E_02_117"
    INDEX 01 02:26:22
  TRACK 118 AUDIO
    TITLE "LR_black_phrase_E_02_118"
    INDEX 01 02:26:51
  TRACK 119 AUDIO
    TITLE "LR_black_phrase_E_02_119"
    INDEX 01 02:28:50
  TRACK 120 AUDIO
    TITLE "LR_black_phrase_E_02_120"
    INDEX 01 02:29:30
  TRACK 121 AUDIO
    TITLE "LR_black_phrase_E_02_121"
    INDEX 01 02:31:27
  TRACK 122 AUDIO
    TITLE "LR_black_phrase_E_02_122"
    INDEX 01 02:32:32
  TRACK 123 AUDIO
    TITLE "LR_black_phrase_E_02_123"
    INDEX 01 02:33:49
  TRACK 124 AUDIO
    TITLE "LR_black_phrase_E_02_124"
    INDEX 01 02:34:04
  TRACK 125 AUDIO
    TITLE "LR_black_phrase_E_02_125"
    INDEX 01 02:35:74
  TRACK 126 AUDIO
    TITLE "LR_black_phrase_E_02_126"
    INDEX 01 02:36:56
  TRACK 127 AUDIO
    TITLE "LR_black_phrase_E_02_127"
    INDEX 01 02:38:51
  TRACK 128 AUDIO
    TITLE "LR_black_phrase_E_02_128"
    INDEX 01 02:39:54
  TRACK 129 AUDIO
    TITLE "LR_black_phrase_E_02_129"
    INDEX 01 02:41:12
  TRACK 130 AUDIO
    TITLE "LR_black_phrase_E_02_130"
    INDEX 01 02:41:43
  TRACK 131 AUDIO
    TITLE "LR_black_phrase_E_02_131"
    INDEX 01 02:44:28
  TRACK 132 AUDIO
    TITLE "LR_black_phrase_E_02_132"
    INDEX 01 02:45:10
  TRACK 133 AUDIO
    TITLE "LR_black_phrase_E_02_133"
    INDEX 01 02:47:69
  TRACK 134 AUDIO
    TITLE "LR_black_phrase_E_02_134"
    INDEX 01 02:48:73
  TRACK 135 AUDIO
    TITLE "LR_black_phrase_E_02_135"
    INDEX 01 02:50:11
  TRACK 136 AUDIO
    TITLE "LR_black_phrase_E_02_136"
    INDEX 01 02:50:40
  TRACK 137 AUDIO
    TITLE "LR_black_phrase_E_02_137"
    INDEX 01 02:52:66
  TRACK 138 AUDIO
    TITLE "LR_black_phrase_E_02_138"
    INDEX 01 02:53:44
  TRACK 139 AUDIO
    TITLE "LR_black_phrase_E_02_139"
    INDEX 01 02:55:71
  TRACK 140 AUDIO
    TITLE "LR_black_phrase_E_02_140"
    INDEX 01 02:56:74
  TRACK 141 AUDIO
    TITLE "LR_black_phrase_E_02_141"
    INDEX 01 02:58:36
  TRACK 142 AUDIO
    TITLE "LR_black_phrase_E_02_142"
    INDEX 01 02:58:65
  TRACK 143 AUDIO
    TITLE "LR_black_phrase_E_02_143"
    INDEX 01 03:00:74
  TRACK 144 AUDIO
    TITLE "LR_black_phrase_E_02_144"
    INDEX 01 03:01:54
  TRACK 145 AUDIO
    TITLE "LR_black_phrase_E_02_145"
    INDEX 01 03:03:64
  TRACK 146 AUDIO
    TITLE "LR_black_phrase_E_02_146"
    INDEX 01 03:04:70
  TRACK 147 AUDIO
    TITLE "LR_black_phrase_E_02_147"
    INDEX 01 03:06:12
  TRACK 148 AUDIO
    TITLE "LR_black_phrase_E_02_148"
    INDEX 01 03:06:43
  TRACK 149 AUDIO
    TITLE "LR_black_phrase_E_02_149"
    INDEX 01 03:09:24
  TRACK 150 AUDIO
    TITLE "LR_black_phrase_E_02_150"
    INDEX 01 03:10:04
  TRACK 151 AUDIO
    TITLE "LR_black_phrase_E_02_151"
    INDEX 01 03:12:61
  TRACK 152 AUDIO
    TITLE "LR_black_phrase_E_02_152"
    INDEX 01 03:13:67
  TRACK 153 AUDIO
    TITLE "LR_black_phrase_E_02_153"
    INDEX 01 03:15:09
  TRACK 154 AUDIO
    TITLE "LR_black_phrase_E_02_154"
    INDEX 01 03:15:38
  TRACK 155 AUDIO
    TITLE "LR_black_phrase_E_02_155"
    INDEX 01 03:17:39
  TRACK 156 AUDIO
    TITLE "LR_black_phrase_E_02_156"
    INDEX 01 03:18:17
  TRACK 157 AUDIO
    TITLE "LR_black_phrase_E_02_157"
    INDEX 01 03:20:18
  TRACK 158 AUDIO
    TITLE "LR_black_phrase_E_02_158"
    INDEX 01 03:21:21
  TRACK 159 AUDIO
    TITLE "LR_black_phrase_E_02_159"
    INDEX 01 03:22:36
  TRACK 160 AUDIO
    TITLE "LR_black_phrase_E_02_160"
    INDEX 01 03:22:66
  TRACK 161 AUDIO
    TITLE "LR_black_phrase_E_02_161"
    INDEX 01 03:24:61
  TRACK 162 AUDIO
    TITLE "LR_black_phrase_E_02_162"
    INDEX 01 03:25:40
  TRACK 163 AUDIO
    TITLE "LR_black_phrase_E_02_163"
    INDEX 01 03:27:33
  TRACK 164 AUDIO
    TITLE "LR_black_phrase_E_02_164"
    INDEX 01 03:28:39
  TRACK 165 AUDIO
    TITLE "LR_black_phrase_E_02_165"
    INDEX 01 03:29:52
  TRACK 166 AUDIO
    TITLE "LR_black_phrase_E_02_166"
    INDEX 01 03:30:06
  TRACK 167 AUDIO
    TITLE "LR_black_phrase_E_02_167"
    INDEX 01 03:32:03
  TRACK 168 AUDIO
    TITLE "LR_black_phrase_E_02_168"
    INDEX 01 03:32:56
  TRACK 169 AUDIO
    TITLE "LR_black_phrase_E_02_169"
    INDEX 01 03:34:53
  TRACK 170 AUDIO
    TITLE "LR_black_phrase_E_02_170"
    INDEX 01 03:35:56
  TRACK 171 AUDIO
    TITLE "LR_black_phrase_E_02_171"
    INDEX 01 03:37:02
  TRACK 172 AUDIO
    TITLE "LR_black_phrase_E_02_172"
    INDEX 01 03:37:34
  TRACK 173 AUDIO
    TITLE "LR_black_phrase_E_02_173"
    INDEX 01 03:39:58
  TRACK 174 AUDIO
    TITLE "LR_black_phrase_E_02_174"
    INDEX 01 03:40:36
  TRACK 175 AUDIO
    TITLE "LR_black_phrase_E_02_175"
    INDEX 01 03:42:60
  TRACK 176 AUDIO
    TITLE "LR_black_phrase_E_02_176"
    INDEX 01 03:43:64
  TRACK 177 AUDIO
    TITLE "LR_black_phrase_E_02_177"
    INDEX 01 03:45:02
  TRACK 178 AUDIO
    TITLE "LR_black_phrase_E_02_178"
    INDEX 01 03:45:37
  TRACK 179 AUDIO
    TITLE "LR_black_phrase_E_02_179"
    INDEX 01 03:47:75
  TRACK 180 AUDIO
    TITLE "LR_black_phrase_E_02_180"
    INDEX 01 03:48:51
  TRACK 181 AUDIO
    TITLE "LR_black_phrase_E_02_181"
    INDEX 01 03:51:16
  TRACK 182 AUDIO
    TITLE "LR_black_phrase_E_02_182"
    INDEX 01 03:52:18
  TRACK 183 AUDIO
    TITLE "LR_black_phrase_E_02_183"
    INDEX 01 03:53:52
  TRACK 184 AUDIO
    TITLE "LR_black_phrase_E_02_184"
    INDEX 01 03:54:07
  TRACK 185 AUDIO
    TITLE "LR_black_phrase_E_02_185"
    INDEX 01 03:56:57
  TRACK 186 AUDIO
    TITLE "LR_black_phrase_E_02_186"
    INDEX 01 03:57:34
  TRACK 187 AUDIO
    TITLE "LR_black_phrase_E_02_187"
    INDEX 01 04:00:09
  TRACK 188 AUDIO
    TITLE "LR_black_phrase_E_02_188"
    INDEX 01 04:01:13
  TRACK 189 AUDIO
    TITLE "LR_black_phrase_E_02_189"
    INDEX 01 04:02:26
  TRACK 190 AUDIO
    TITLE "LR_black_phrase_E_02_190"
    INDEX 01 04:02:45
  TRACK 191 AUDIO
    TITLE "LR_black_phrase_E_02_191"
    INDEX 01 04:05:10
  TRACK 192 AUDIO
    TITLE "LR_black_phrase_E_02_192"
    INDEX 01 04:05:54
  TRACK 193 AUDIO
    TITLE "LR_black_phrase_E_02_193"
    INDEX 01 04:08:17
  TRACK 194 AUDIO
    TITLE "LR_black_phrase_E_02_194"
    INDEX 01 04:09:18
  TRACK 195 AUDIO
    TITLE "LR_black_phrase_E_02_195"
    INDEX 01 04:10:43
  TRACK 196 AUDIO
    TITLE "LR_black_phrase_E_02_196"
    INDEX 01 04:10:70
  TRACK 197 AUDIO
    TITLE "LR_black_phrase_E_02_197"
    INDEX 01 04:12:63
  TRACK 198 AUDIO
    TITLE "LR_black_phrase_E_02_198"
    INDEX 01 04:13:43
  TRACK 199 AUDIO
    TITLE "LR_black_phrase_E_02_199"
    INDEX 01 04:15:36
  TRACK 200 AUDIO
    TITLE "LR_black_phrase_E_02_200"
    INDEX 01 04:16:40
  TRACK 201 AUDIO
    TITLE "LR_black_phrase_E_02_201"
    INDEX 01 04:17:57
  TRACK 202 AUDIO
    TITLE "LR_black_phrase_E_02_202"
    INDEX 01 04:18:13
  TRACK 203 AUDIO
    TITLE "LR_black_phrase_E_02_203"
    INDEX 01 04:21:47
  TRACK 204 AUDIO
    TITLE "LR_black_phrase_E_02_204"
    INDEX 01 04:22:23
  TRACK 205 AUDIO
    TITLE "LR_black_phrase_E_02_205"
    INDEX 01 04:25:56
  TRACK 206 AUDIO
    TITLE "LR_black_phrase_E_02_206"
    INDEX 01 04:26:60
  TRACK 207 AUDIO
    TITLE "LR_black_phrase_E_02_207"
    INDEX 01 04:27:69
  TRACK 208 AUDIO
    TITLE "LR_black_phrase_E_02_208"
    INDEX 01 04:28:25
  TRACK 209 AUDIO
    TITLE "LR_black_phrase_E_02_209"
    INDEX 01 04:30:30
  TRACK 210 AUDIO
    TITLE "LR_black_phrase_E_02_210"
    INDEX 01 04:31:12
  TRACK 211 AUDIO
    TITLE "LR_black_phrase_E_02_211"
    INDEX 01 04:33:19
  TRACK 212 AUDIO
    TITLE "LR_black_phrase_E_02_212"
    INDEX 01 04:34:22
  TRACK 213 AUDIO
    TITLE "LR_black_phrase_E_02_213"
    INDEX 01 04:35:51
  TRACK 214 AUDIO
    TITLE "LR_black_phrase_E_02_214"
    INDEX 01 04:36:05
  TRACK 215 AUDIO
    TITLE "LR_black_phrase_E_02_215"
    INDEX 01 04:38:55
  TRACK 216 AUDIO
    TITLE "LR_black_phrase_E_02_216"
    INDEX 01 04:39:37
  TRACK 217 AUDIO
    TITLE "LR_black_phrase_E_02_217"
    INDEX 01 04:42:16
  TRACK 218 AUDIO
    TITLE "LR_black_phrase_E_02_218"
    INDEX 01 04:43:19
  TRACK 219 AUDIO
    TITLE "LR_black_phrase_E_02_219"
    INDEX 01 04:44:26
  TRACK 220 AUDIO
    TITLE "LR_black_phrase_E_02_220"
    INDEX 01 04:44:63
  TRACK 221 AUDIO
    TITLE "LR_black_phrase_E_02_221"
    INDEX 01 04:47:01
  TRACK 222 AUDIO
    TITLE "LR_black_phrase_E_02_222"
    INDEX 01 04:47:56
  TRACK 223 AUDIO
    TITLE "LR_black_phrase_E_02_223"
    INDEX 01 04:49:69
  TRACK 224 AUDIO
    TITLE "LR_black_phrase_E_02_224"
    INDEX 01 04:50:74
  TRACK 225 AUDIO
    TITLE "LR_black_phrase_E_02_225"
    INDEX 01 04:52:04
  TRACK 226 AUDIO
    TITLE "LR_black_phrase_E_02_226"
    INDEX 01 04:52:34
  TRACK 227 AUDIO
    TITLE "LR_black_phrase_E_02_227"
    INDEX 01 04:55:46
  TRACK 228 AUDIO
    TITLE "LR_black_phrase_E_02_228"
    INDEX 01 04:56:27
  TRACK 229 AUDIO
    TITLE "LR_black_phrase_E_02_229"
    INDEX 01 04:59:39
  TRACK 230 AUDIO
    TITLE "LR_black_phrase_E_02_230"
    INDEX 01 05:00:45
  TRACK 231 AUDIO
    TITLE "LR_black_phrase_E_02_231"
    INDEX 01 05:02:06
  TRACK 232 AUDIO
    TITLE "LR_black_phrase_E_02_232"
    INDEX 01 05:02:38
  TRACK 233 AUDIO
    TITLE "LR_black_phrase_E_02_233"
    INDEX 01 05:04:48
  TRACK 234 AUDIO
    TITLE "LR_black_phrase_E_02_234"
    INDEX 01 05:05:24
  TRACK 235 AUDIO
    TITLE "LR_black_phrase_E_02_235"
    INDEX 01 05:07:35
  TRACK 236 AUDIO
    TITLE "LR_black_phrase_E_02_236"
    INDEX 01 05:08:37
  TRACK 237 AUDIO
    TITLE "LR_black_phrase_E_02_237"
    INDEX 01 05:09:75
  TRACK 238 AUDIO
    TITLE "LR_black_phrase_E_02_238"
    INDEX 01 05:10:24
  TRACK 239 AUDIO
    TITLE "LR_black_phrase_E_02_239"
    INDEX 01 05:12:36
  TRACK 240 AUDIO
    TITLE "LR_black_phrase_E_02_240"
    INDEX 01 05:13:20
  TRACK 241 AUDIO
    TITLE "LR_black_phrase_E_02_241"
    INDEX 01 05:15:31
  TRACK 242 AUDIO
    TITLE "LR_black_phrase_E_02_242"
    INDEX 01 05:16:42
  TRACK 243 AUDIO
    TITLE "LR_black_phrase_E_02_243"
    INDEX 01 05:17:51
  TRACK 244 AUDIO
    TITLE "LR_black_phrase_E_02_244"
    INDEX 01 05:18:06
  TRACK 245 AUDIO
    TITLE "LR_black_phrase_E_02_245"
    INDEX 01 05:19:40
  TRACK 246 AUDIO
    TITLE "LR_black_phrase_E_02_246"
    INDEX 01 05:20:20
  TRACK 247 AUDIO
    TITLE "LR_black_phrase_E_02_247"
    INDEX 01 05:21:55
  TRACK 248 AUDIO
    TITLE "LR_black_phrase_E_02_248"
    INDEX 01 05:22:60
  TRACK 249 AUDIO
    TITLE "LR_black_phrase_E_02_249"
    INDEX 01 05:23:71
  TRACK 250 AUDIO
    TITLE "LR_black_phrase_E_02_250"
    INDEX 01 05:24:28
  TRACK 251 AUDIO
    TITLE "LR_black_phrase_E_02_251"
    INDEX 01 05:27:04
  TRACK 252 AUDIO
    TITLE "LR_black_phrase_E_02_252"
    INDEX 01 05:27:59
  TRACK 253 AUDIO
    TITLE "LR_black_phrase_E_02_253"
    INDEX 01 05:30:36
  TRACK 254 AUDIO
    TITLE "LR_black_phrase_E_02_254"
    INDEX 01 05:31:49
  TRACK 255 AUDIO
    TITLE "LR_black_phrase_E_02_255"
    INDEX 01 05:32:74
  TRACK 256 AUDIO
    TITLE "LR_black_phrase_E_02_256"
    INDEX 01 05:33:33
  TRACK 257 AUDIO
    TITLE "LR_black_phrase_E_02_257"
    INDEX 01 05:35:29
  TRACK 258 AUDIO
    TITLE "LR_black_phrase_E_02_258"
    INDEX 01 05:36:09
  TRACK 259 AUDIO
    TITLE "LR_black_phrase_E_02_259"
    INDEX 01 05:38:06
  TRACK 260 AUDIO
    TITLE "LR_black_phrase_E_02_260"
    INDEX 01 05:39:12
  TRACK 261 AUDIO
    TITLE "LR_black_phrase_E_02_261"
    INDEX 01 05:40:37
  TRACK 262 AUDIO
    TITLE "LR_black_phrase_E_02_262"
    INDEX 01 05:40:64
  TRACK 263 AUDIO
    TITLE "LR_black_phrase_E_02_263"
    INDEX 01 05:43:09
  TRACK 264 AUDIO
    TITLE "LR_black_phrase_E_02_264"
    INDEX 01 05:43:64
  TRACK 265 AUDIO
    TITLE "LR_black_phrase_E_02_265"
    INDEX 01 05:46:10
  TRACK 266 AUDIO
    TITLE "LR_black_phrase_E_02_266"
    INDEX 01 05:47:15
  TRACK 267 AUDIO
    TITLE "LR_black_phrase_E_02_267"
    INDEX 01 05:48:38
  TRACK 268 AUDIO
    TITLE "LR_black_phrase_E_02_268"
    INDEX 01 05:48:67
  TRACK 269 AUDIO
    TITLE "LR_black_phrase_E_02_269"
    INDEX 01 05:51:01
  TRACK 270 AUDIO
    TITLE "LR_black_phrase_E_02_270"
    INDEX 01 05:51:54
  TRACK 271 AUDIO
    TITLE "LR_black_phrase_E_02_271"
    INDEX 01 05:53:63
  TRACK 272 AUDIO
    TITLE "LR_black_phrase_E_02_272"
    INDEX 01 05:54:66
  TRACK 273 AUDIO
    TITLE "LR_black_phrase_E_02_273"
    INDEX 01 05:56:24
  TRACK 274 AUDIO
    TITLE "LR_black_phrase_E_02_274"
    INDEX 01 05:56:51
  TRACK 275 AUDIO
    TITLE "LR_black_phrase_E_02_275"
    INDEX 01 05:58:52
  TRACK 276 AUDIO
    TITLE "LR_black_phrase_E_02_276"
    INDEX 01 05:59:32
  TRACK 277 AUDIO
    TITLE "LR_black_phrase_E_02_277"
    INDEX 01 06:01:33
  TRACK 278 AUDIO
    TITLE "LR_black_phrase_E_02_278"
    INDEX 01 06:02:38
  TRACK 279 AUDIO
    TITLE "LR_black_phrase_E_02_279"
    INDEX 01 06:03:39
  TRACK 280 AUDIO
    TITLE "LR_black_phrase_E_02_280"
    INDEX 01 06:03:69
  TRACK 281 AUDIO
    TITLE "LR_black_phrase_E_02_281"
    INDEX 01 06:06:30
  TRACK 282 AUDIO
    TITLE "LR_black_phrase_E_02_282"
    INDEX 01 06:07:06
  TRACK 283 AUDIO
    TITLE "LR_black_phrase_E_02_283"
    INDEX 01 06:09:42
  TRACK 284 AUDIO
    TITLE "LR_black_phrase_E_02_284"
    INDEX 01 06:10:45
  TRACK 285 AUDIO
    TITLE "LR_black_phrase_E_02_285"
    INDEX 01 06:12:03
  TRACK 286 AUDIO
    TITLE "LR_black_phrase_E_02_286"
    INDEX 01 06:12:33
  TRACK 287 AUDIO
    TITLE "LR_black_phrase_E_02_287"
    INDEX 01 06:15:04
  TRACK 288 AUDIO
    TITLE "LR_black_phrase_E_02_288"
    INDEX 01 06:15:60
  TRACK 289 AUDIO
    TITLE "LR_black_phrase_E_02_289"
    INDEX 01 06:18:31
  TRACK 290 AUDIO
    TITLE "LR_black_phrase_E_02_290"
    INDEX 01 06:19:39
  TRACK 291 AUDIO
    TITLE "LR_black_phrase_E_02_291"
    INDEX 01 06:20:56
  TRACK 292 AUDIO
    TITLE "LR_black_phrase_E_02_292"
    INDEX 01 06:21:10
  TRACK 293 AUDIO
    TITLE "LR_black_phrase_E_02_293"
    INDEX 01 06:23:25
  TRACK 294 AUDIO
    TITLE "LR_black_phrase_E_02_294"
    INDEX 01 06:24:04
  TRACK 295 AUDIO
    TITLE "LR_black_phrase_E_02_295"
    INDEX 01 06:26:21
  TRACK 296 AUDIO
    TITLE "LR_black_phrase_E_02_296"
    INDEX 01 06:27:26
  TRACK 297 AUDIO
    TITLE "LR_black_phrase_E_02_297"
    INDEX 01 06:28:37
  TRACK 298 AUDIO
    TITLE "LR_black_phrase_E_02_298"
    INDEX 01 06:28:67
  TRACK 299 AUDIO
    TITLE "LR_black_phrase_E_02_299"
    INDEX 01 06:31:22
  TRACK 300 AUDIO
    TITLE "LR_black_phrase_E_02_300"
    INDEX 01 06:32:02
  TRACK 301 AUDIO
    TITLE "LR_black_phrase_E_02_301"
    INDEX 01 06:34:32
  TRACK 302 AUDIO
    TITLE "LR_black_phrase_E_02_302"
    INDEX 01 06:35:39
  TRACK 303 AUDIO
    TITLE "LR_black_phrase_E_02_303"
    INDEX 01 06:36:39
  TRACK 304 AUDIO
    TITLE "LR_black_phrase_E_02_304"
    INDEX 01 06:37:07
  TRACK 305 AUDIO
    TITLE "LR_black_phrase_E_02_305"
    INDEX 01 06:39:10
  TRACK 306 AUDIO
    TITLE "LR_black_phrase_E_02_306"
    INDEX 01 06:39:65
  TRACK 307 AUDIO
    TITLE "LR_black_phrase_E_02_307"
    INDEX 01 06:41:70
  TRACK 308 AUDIO
    TITLE "LR_black_phrase_E_02_308"
    INDEX 01 06:42:73
  TRACK 309 AUDIO
    TITLE "LR_black_phrase_E_02_309"
    INDEX 01 06:44:29
  TRACK 310 AUDIO
    TITLE "LR_black_phrase_E_02_310"
    INDEX 01 06:44:56
  TRACK 311 AUDIO
    TITLE "LR_black_phrase_E_02_311"
    INDEX 01 06:46:51
  TRACK 312 AUDIO
    TITLE "LR_black_phrase_E_02_312"
    INDEX 01 06:47:33
  TRACK 313 AUDIO
    TITLE "LR_black_phrase_E_02_313"
    INDEX 01 06:49:22
  TRACK 314 AUDIO
    TITLE "LR_black_phrase_E_02_314"
    INDEX 01 06:50:25
  TRACK 315 AUDIO
    TITLE "LR_black_phrase_E_02_315"
    INDEX 01 06:51:35
  TRACK 316 AUDIO
    TITLE "LR_black_phrase_E_02_316"
    INDEX 01 06:51:64
  TRACK 317 AUDIO
    TITLE "LR_black_phrase_E_02_317"
    INDEX 01 06:54:09
  TRACK 318 AUDIO
    TITLE "LR_black_phrase_E_02_318"
    INDEX 01 06:54:62
  TRACK 319 AUDIO
    TITLE "LR_black_phrase_E_02_319"
    INDEX 01 06:57:06
  TRACK 320 AUDIO
    TITLE "LR_black_phrase_E_02_320"
    INDEX 01 06:58:09
  TRACK 321 AUDIO
    TITLE "LR_black_phrase_E_02_321"
    INDEX 01 06:59:15
  TRACK 322 AUDIO
    TITLE "LR_black_phrase_E_02_322"
    INDEX 01 06:59:44
  TRACK 323 AUDIO
    TITLE "LR_black_phrase_E_02_323"
    INDEX 01 07:01:23
  TRACK 324 AUDIO
    TITLE "LR_black_phrase_E_02_324"
    INDEX 01 07:02:05
  TRACK 325 AUDIO
    TITLE "LR_black_phrase_E_02_325"
    INDEX 01 07:03:59
  TRACK 326 AUDIO
    TITLE "LR_black_phrase_E_02_326"
    INDEX 01 07:04:65
  TRACK 327 AUDIO
    TITLE "LR_black_phrase_E_02_327"
    INDEX 01 07:06:09
  TRACK 328 AUDIO
    TITLE "LR_black_phrase_E_02_328"
    INDEX 01 07:06:38
  TRACK 329 AUDIO
    TITLE "LR_black_phrase_E_02_329"
    INDEX 01 07:08:72
  TRACK 330 AUDIO
    TITLE "LR_black_phrase_E_02_330"
    INDEX 01 07:09:50
  TRACK 331 AUDIO
    TITLE "LR_black_phrase_E_02_331"
    INDEX 01 07:12:11
  TRACK 332 AUDIO
    TITLE "LR_black_phrase_E_02_332"
    INDEX 01 07:13:13
  TRACK 333 AUDIO
    TITLE "LR_black_phrase_E_02_333"
    INDEX 01 07:14:38
  TRACK 334 AUDIO
    TITLE "LR_black_phrase_E_02_334"
    INDEX 01 07:14:65
  TRACK 335 AUDIO
    TITLE "LR_black_phrase_E_02_335"
    INDEX 01 07:17:30
  TRACK 336 AUDIO
    TITLE "LR_black_phrase_E_02_336"
    INDEX 01 07:18:10
  TRACK 337 AUDIO
    TITLE "LR_black_phrase_E_02_337"
    INDEX 01 07:20:50
  TRACK 338 AUDIO
    TITLE "LR_black_phrase_E_02_338"
    INDEX 01 07:21:53
  TRACK 339 AUDIO
    TITLE "LR_black_phrase_E_02_339"
    INDEX 01 07:23:05
  TRACK 340 AUDIO
    TITLE "LR_black_phrase_E_02_340"
    INDEX 01 07:23:35
  TRACK 341 AUDIO
    TITLE "LR_black_phrase_E_02_341"
    INDEX 01 07:25:69
  TRACK 342 AUDIO
    TITLE "LR_black_phrase_E_02_342"
    INDEX 01 07:26:51
  TRACK 343 AUDIO
    TITLE "LR_black_phrase_E_02_343"
    INDEX 01 07:29:06
  TRACK 344 AUDIO
    TITLE "LR_black_phrase_E_02_344"
    INDEX 01 07:30:09
  TRACK 345 AUDIO
    TITLE "LR_black_phrase_E_02_345"
    INDEX 01 07:31:34
  TRACK 346 AUDIO
    TITLE "LR_black_phrase_E_02_346"
    INDEX 01 07:31:63
  TRACK 347 AUDIO
    TITLE "LR_black_phrase_E_02_347"
    INDEX 01 07:34:13
  TRACK 348 AUDIO
    TITLE "LR_black_phrase_E_02_348"
    INDEX 01 07:34:72
  TRACK 349 AUDIO
    TITLE "LR_black_phrase_E_02_349"
    INDEX 01 07:37:21
  TRACK 350 AUDIO
    TITLE "LR_black_phrase_E_02_350"
    INDEX 01 07:38:30
  TRACK 351 AUDIO
    TITLE "LR_black_phrase_E_02_351"
    INDEX 01 07:39:45
  TRACK 352 AUDIO
    TITLE "LR_black_phrase_E_02_352"
    INDEX 01 07:39:71
  TRACK 353 AUDIO
    TITLE "LR_black_phrase_E_02_353"
    INDEX 01 07:42:10
  TRACK 354 AUDIO
    TITLE "LR_black_phrase_E_02_354"
    INDEX 01 07:42:57
  TRACK 355 AUDIO
    TITLE "LR_black_phrase_E_02_355"
    INDEX 01 07:44:74
  TRACK 356 AUDIO
    TITLE "LR_black_phrase_E_02_356"
    INDEX 01 07:46:02
  TRACK 357 AUDIO
    TITLE "LR_black_phrase_E_02_357"
    INDEX 01 07:47:33
  TRACK 358 AUDIO
    TITLE "LR_black_phrase_E_02_358"
    INDEX 01 07:47:64
  TRACK 359 AUDIO
    TITLE "LR_black_phrase_E_02_359"
    INDEX 01 07:51:64
  TRACK 360 AUDIO
    TITLE "LR_black_phrase_E_02_360"
    INDEX 01 07:52:44
  TRACK 361 AUDIO
    TITLE "LR_black_phrase_E_02_361"
    INDEX 01 07:56:44
  TRACK 362 AUDIO
    TITLE "LR_black_phrase_E_02_362"
    INDEX 01 07:57:49
  TRACK 363 AUDIO
    TITLE "LR_black_phrase_E_02_363"
    INDEX 01 07:59:11
  TRACK 364 AUDIO
    TITLE "LR_black_phrase_E_02_364"
    INDEX 01 07:59:42
  TRACK 365 AUDIO
    TITLE "LR_black_phrase_E_02_365"
    INDEX 01 08:01:37
  TRACK 366 AUDIO
    TITLE "LR_black_phrase_E_02_366"
    INDEX 01 08:02:17
  TRACK 367 AUDIO
    TITLE "LR_black_phrase_E_02_367"
    INDEX 01 08:04:12
  TRACK 368 AUDIO
    TITLE "LR_black_phrase_E_02_368"
    INDEX 01 08:05:17
  TRACK 369 AUDIO
    TITLE "LR_black_phrase_E_02_369"
    INDEX 01 08:06:25
  TRACK 370 AUDIO
    TITLE "LR_black_phrase_E_02_370"
    INDEX 01 08:06:54
  TRACK 371 AUDIO
    TITLE "LR_black_phrase_E_02_371"
    INDEX 01 08:09:31
  TRACK 372 AUDIO
    TITLE "LR_black_phrase_E_02_372"
    INDEX 01 08:10:09
  TRACK 373 AUDIO
    TITLE "LR_black_phrase_E_02_373"
    INDEX 01 08:12:61
  TRACK 374 AUDIO
    TITLE "LR_black_phrase_E_02_374"
    INDEX 01 08:13:64
  TRACK 375 AUDIO
    TITLE "LR_black_phrase_E_02_375"
    INDEX 01 08:15:10
  TRACK 376 AUDIO
    TITLE "LR_black_phrase_E_02_376"
    INDEX 01 08:15:37
  TRACK 377 AUDIO
    TITLE "LR_black_phrase_E_02_377"
    INDEX 01 08:17:36
  TRACK 378 AUDIO
    TITLE "LR_black_phrase_E_02_378"
    INDEX 01 08:18:14
  TRACK 379 AUDIO
    TITLE "LR_black_phrase_E_02_379"
    INDEX 01 08:20:15
  TRACK 380 AUDIO
    TITLE "LR_black_phrase_E_02_380"
    INDEX 01 08:21:16
  TRACK 381 AUDIO
    TITLE "LR_black_phrase_E_02_381"
    INDEX 01 08:22:41
  TRACK 382 AUDIO
    TITLE "LR_black_phrase_E_02_382"
    INDEX 01 08:22:73
  TRACK 383 AUDIO
    TITLE "LR_black_phrase_E_02_383"
    INDEX 01 08:24:56
  TRACK 384 AUDIO
    TITLE "LR_black_phrase_E_02_384"
    INDEX 01 08:25:34
  TRACK 385 AUDIO
    TITLE "LR_black_phrase_E_02_385"
    INDEX 01 08:27:19
  TRACK 386 AUDIO
    TITLE "LR_black_phrase_E_02_386"
    INDEX 01 08:28:22
  TRACK 387 AUDIO
    TITLE "LR_black_phrase_E_02_387"
    INDEX 01 08:29:61
  TRACK 388 AUDIO
    TITLE "LR_black_phrase_E_02_388"
    INDEX 01 08:30:11
  TRACK 389 AUDIO
    TITLE "LR_black_phrase_E_02_389"
    INDEX 01 08:32:22
  TRACK 390 AUDIO
    TITLE "LR_black_phrase_E_02_390"
    INDEX 01 08:33:02
  TRACK 391 AUDIO
    TITLE "LR_black_phrase_E_02_391"
    INDEX 01 08:35:13
  TRACK 392 AUDIO
    TITLE "LR_black_phrase_E_02_392"
    INDEX 01 08:36:16
  TRACK 393 AUDIO
    TITLE "LR_black_phrase_E_02_393"
    INDEX 01 08:37:19
  TRACK 394 AUDIO
    TITLE "LR_black_phrase_E_02_394"
    INDEX 01 08:37:49
  TRACK 395 AUDIO
    TITLE "LR_black_phrase_E_02_395"
    INDEX 01 08:39:63
  TRACK 396 AUDIO
    TITLE "LR_black_phrase_E_02_396"
    INDEX 01 08:40:41
  TRACK 397 AUDIO
    TITLE "LR_black_phrase_E_02_397"
    INDEX 01 08:42:60
  TRACK 398 AUDIO
    TITLE "LR_black_phrase_E_02_398"
    INDEX 01 08:43:61
  TRACK 399 AUDIO
    TITLE "LR_black_phrase_E_02_399"
    INDEX 01 08:44:74
  TRACK 400 AUDIO
    TITLE "LR_black_phrase_E_02_400"
    INDEX 01 08:45:29
  TRACK 401 AUDIO
    TITLE "LR_black_phrase_E_02_401"
    INDEX 01 08:47:24
  TRACK 402 AUDIO
    TITLE "LR_black_phrase_E_02_402"
    INDEX 01 08:48:03
  TRACK 403 AUDIO
    TITLE "LR_black_phrase_E_02_403"
    INDEX 01 08:49:73
  TRACK 404 AUDIO
    TITLE "LR_black_phrase_E_02_404"
    INDEX 01 08:51:04
  TRACK 405 AUDIO
    TITLE "LR_black_phrase_E_02_405"
    INDEX 01 08:52:46
  TRACK 406 AUDIO
    TITLE "LR_black_phrase_E_02_406"
    INDEX 01 08:52:74
  TRACK 407 AUDIO
    TITLE "LR_black_phrase_E_02_407"
    INDEX 01 08:55:25
  TRACK 408 AUDIO
    TITLE "LR_black_phrase_E_02_408"
    INDEX 01 08:56:03
  TRACK 409 AUDIO
    TITLE "LR_black_phrase_E_02_409"
    INDEX 01 08:58:27
  TRACK 410 AUDIO
    TITLE "LR_black_phrase_E_02_410"
    INDEX 01 08:59:29
  TRACK 411 AUDIO
    TITLE "LR_black_phrase_E_02_411"
    INDEX 01 09:00:48
  TRACK 412 AUDIO
    TITLE "LR_black_phrase_E_02_412"
    INDEX 01 09:00:71
  TRACK 413 AUDIO
    TITLE "LR_black_phrase_E_02_413"
    INDEX 01 09:03:32
  TRACK 414 AUDIO
    TITLE "LR_black_phrase_E_02_414"
    INDEX 01 09:04:12
  TRACK 415 AUDIO
    TITLE "LR_black_phrase_E_02_415"
    INDEX 01 09:06:48
  TRACK 416 AUDIO
    TITLE "LR_black_phrase_E_02_416"
    INDEX 01 09:07:52
  TRACK 417 AUDIO
    TITLE "LR_black_phrase_E_02_417"
    INDEX 01 09:08:75
  TRACK 418 AUDIO
    TITLE "LR_black_phrase_E_02_418"
    INDEX 01 09:09:27
  TRACK 419 AUDIO
    TITLE "LR_black_phrase_E_02_419"
    INDEX 01 09:11:14
  TRACK 420 AUDIO
    TITLE "LR_black_phrase_E_02_420"
    INDEX 01 09:11:67
  TRACK 421 AUDIO
    TITLE "LR_black_phrase_E_02_421"
    INDEX 01 09:13:54
  TRACK 422 AUDIO
    TITLE "LR_black_phrase_E_02_422"
    INDEX 01 09:14:58
  TRACK 423 AUDIO
    TITLE "LR_black_phrase_E_02_423"
    INDEX 01 09:16:12
  TRACK 424 AUDIO
    TITLE "LR_black_phrase_E_02_424"
    INDEX 01 09:16:35
  TRACK 425 AUDIO
    TITLE "LR_black_phrase_E_02_425"
    INDEX 01 09:18:67
  TRACK 426 AUDIO
    TITLE "LR_black_phrase_E_02_426"
    INDEX 01 09:19:39
  TRACK 427 AUDIO
    TITLE "LR_black_phrase_E_02_427"
    INDEX 01 09:21:71
  TRACK 428 AUDIO
    TITLE "LR_black_phrase_E_02_428"
    INDEX 01 09:23:02
  TRACK 429 AUDIO
    TITLE "LR_black_phrase_E_02_429"
    INDEX 01 09:24:21
  TRACK 430 AUDIO
    TITLE "LR_black_phrase_E_02_430"
    INDEX 01 09:24:50
  TRACK 431 AUDIO
    TITLE "LR_black_phrase_E_02_431"
    INDEX 01 09:27:68
  TRACK 432 AUDIO
    TITLE "LR_black_phrase_E_02_432"
    INDEX 01 09:28:44
  TRACK 433 AUDIO
    TITLE "LR_black_phrase_E_02_433"
    INDEX 01 09:31:62
  TRACK 434 AUDIO
    TITLE "LR_black_phrase_E_02_434"
    INDEX 01 09:32:63
  TRACK 435 AUDIO
    TITLE "LR_black_phrase_E_02_435"
    INDEX 01 09:34:17
  TRACK 436 AUDIO
    TITLE "LR_black_phrase_E_02_436"
    INDEX 01 09:34:37
  TRACK 437 AUDIO
    TITLE "LR_black_phrase_E_02_437"
    INDEX 01 09:37:06
  TRACK 438 AUDIO
    TITLE "LR_black_phrase_E_02_438"
    INDEX 01 09:37:55
  TRACK 439 AUDIO
    TITLE "LR_black_phrase_E_02_439"
    INDEX 01 09:40:24
  TRACK 440 AUDIO
    TITLE "LR_black_phrase_E_02_440"
    INDEX 01 09:41:27
  TRACK 441 AUDIO
    TITLE "LR_black_phrase_E_02_441"
    INDEX 01 09:42:56
  TRACK 442 AUDIO
    TITLE "LR_black_phrase_E_02_442"
    INDEX 01 09:43:03
  TRACK 443 AUDIO
    TITLE "LR_black_phrase_E_02_443"
    INDEX 01 09:45:03
  TRACK 444 AUDIO
    TITLE "LR_black_phrase_E_02_444"
    INDEX 01 09:45:52
  TRACK 445 AUDIO
    TITLE "LR_black_phrase_E_02_445"
    INDEX 01 09:47:53
  TRACK 446 AUDIO
    TITLE "LR_black_phrase_E_02_446"
    INDEX 01 09:48:57
  TRACK 447 AUDIO
    TITLE "LR_black_phrase_E_02_447"
    INDEX 01 09:49:74
  TRACK 448 AUDIO
    TITLE "LR_black_phrase_E_02_448"
    INDEX 01 09:50:30
  TRACK 449 AUDIO
    TITLE "LR_black_phrase_E_02_449"
    INDEX 01 09:52:54
  TRACK 450 AUDIO
    TITLE "LR_black_phrase_E_02_450"
    INDEX 01 09:53:32
  TRACK 451 AUDIO
    TITLE "LR_black_phrase_E_02_451"
    INDEX 01 09:55:57
  TRACK 452 AUDIO
    TITLE "LR_black_phrase_E_02_452"
    INDEX 01 09:56:60
  TRACK 453 AUDIO
    TITLE "LR_black_phrase_E_02_453"
    INDEX 01 09:58:08
  TRACK 454 AUDIO
    TITLE "LR_black_phrase_E_02_454"
    INDEX 01 09:58:37
  TRACK 455 AUDIO
    TITLE "LR_black_phrase_E_02_455"
    INDEX 01 10:00:50
  TRACK 456 AUDIO
    TITLE "LR_black_phrase_E_02_456"
    INDEX 01 10:01:30
  TRACK 457 AUDIO
    TITLE "LR_black_phrase_E_02_457"
    INDEX 01 10:03:42
  TRACK 458 AUDIO
    TITLE "LR_black_phrase_E_02_458"
    INDEX 01 10:04:48
  TRACK 459 AUDIO
    TITLE "LR_black_phrase_E_02_459"
    INDEX 01 10:06:25
  TRACK 460 AUDIO
    TITLE "LR_black_phrase_E_02_460"
    INDEX 01 10:06:55
  TRACK 461 AUDIO
    TITLE "LR_black_phrase_E_02_461"
    INDEX 01 10:08:69
  TRACK 462 AUDIO
    TITLE "LR_black_phrase_E_02_462"
    INDEX 01 10:09:47
  TRACK 463 AUDIO
    TITLE "LR_black_phrase_E_02_463"
    INDEX 01 10:11:64
  TRACK 464 AUDIO
    TITLE "LR_black_phrase_E_02_464"
    INDEX 01 10:12:65
  TRACK 465 AUDIO
    TITLE "LR_black_phrase_E_02_465"
    INDEX 01 10:14:01
  TRACK 466 AUDIO
    TITLE "LR_black_phrase_E_02_466"
    INDEX 01 10:14:23
  TRACK 467 AUDIO
    TITLE "LR_black_phrase_E_02_467"
    INDEX 01 10:16:14
  TRACK 468 AUDIO
    TITLE "LR_black_phrase_E_02_468"
    INDEX 01 10:16:63
  TRACK 469 AUDIO
    TITLE "LR_black_phrase_E_02_469"
    INDEX 01 10:18:54
  TRACK 470 AUDIO
    TITLE "LR_black_phrase_E_02_470"
    INDEX 01 10:19:59
  TRACK 471 AUDIO
    TITLE "LR_black_phrase_E_02_471"
    INDEX 01 10:21:05
  TRACK 472 AUDIO
    TITLE "LR_black_phrase_E_02_472"
    INDEX 01 10:21:34
  TRACK 473 AUDIO
    TITLE "LR_black_phrase_E_02_473"
    INDEX 01 10:23:71
  TRACK 474 AUDIO
    TITLE "LR_black_phrase_E_02_474"
    INDEX 01 10:24:48
  TRACK 475 AUDIO
    TITLE "LR_black_phrase_E_02_475"
    INDEX 01 10:27:10
  TRACK 476 AUDIO
    TITLE "LR_black_phrase_E_02_476"
    INDEX 01 10:28:15
  TRACK 477 AUDIO
    TITLE "LR_black_phrase_E_02_477"
    INDEX 01 10:29:26
  TRACK 478 AUDIO
    TITLE "LR_black_phrase_E_02_478"
    INDEX 01 10:29:54
  TRACK 479 AUDIO
    TITLE "LR_black_phrase_E_02_479"
    INDEX 01 10:32:09
  TRACK 480 AUDIO
    TITLE "LR_black_phrase_E_02_480"
    INDEX 01 10:32:64
  TRACK 481 AUDIO
    TITLE "LR_black_phrase_E_02_481"
    INDEX 01 10:35:19
  TRACK 482 AUDIO
    TITLE "LR_black_phrase_E_02_482"
    INDEX 01 10:36:24
  TRACK 483 AUDIO
    TITLE "LR_black_phrase_E_02_483"
    INDEX 01 10:37:41
  TRACK 484 AUDIO
    TITLE "LR_black_phrase_E_02_484"
    INDEX 01 10:37:69
  TRACK 485 AUDIO
    TITLE "LR_black_phrase_E_02_485"
    INDEX 01 10:39:72
  TRACK 486 AUDIO
    TITLE "LR_black_phrase_E_02_486"
    INDEX 01 10:40:51
  TRACK 487 AUDIO
    TITLE "LR_black_phrase_E_02_487"
    INDEX 01 10:42:54
  TRACK 488 AUDIO
    TITLE "LR_black_phrase_E_02_488"
    INDEX 01 10:43:60
  TRACK 489 AUDIO
    TITLE "LR_black_phrase_E_02_489"
    INDEX 01 10:44:71
  TRACK 490 AUDIO
    TITLE "LR_black_phrase_E_02_490"
    INDEX 01 10:45:25
  TRACK 491 AUDIO
    TITLE "LR_black_phrase_E_02_491"
    INDEX 01 10:47:57
  TRACK 492 AUDIO
    TITLE "LR_black_phrase_E_02_492"
    INDEX 01 10:48:37
  TRACK 493 AUDIO
    TITLE "LR_black_phrase_E_02_493"
    INDEX 01 10:50:69
  TRACK 494 AUDIO
    TITLE "LR_black_phrase_E_02_494"
    INDEX 01 10:51:75
  TRACK 495 AUDIO
    TITLE "LR_black_phrase_E_02_495"
    INDEX 01 10:53:38
  TRACK 496 AUDIO
    TITLE "LR_black_phrase_E_02_496"
    INDEX 01 10:53:68
  TRACK 497 AUDIO
    TITLE "LR_black_phrase_E_02_497"
    INDEX 01 10:56:23
  TRACK 498 AUDIO
    TITLE "LR_black_phrase_E_02_498"
    INDEX 01 10:57:01
  TRACK 499 AUDIO
    TITLE "LR_black_phrase_E_02_499"
    INDEX 01 10:59:31
  TRACK 500 AUDIO
    TITLE "LR_black_phrase_E_02_500"
    INDEX 01 11:00:33
  TRACK 501 AUDIO
    TITLE "LR_black_phrase_E_02_501"
    INDEX 01 11:01:46
  TRACK 502 AUDIO
    TITLE "LR_black_phrase_E_02_502"
    INDEX 01 11:01:71
  TRACK 503 AUDIO
    TITLE "LR_black_phrase_E_02_503"
    INDEX 01 11:04:01
  TRACK 504 AUDIO
    TITLE "LR_black_phrase_E_02_504"
    INDEX 01 11:04:54
  TRACK 505 AUDIO
    TITLE "LR_black_phrase_E_02_505"
    INDEX 01 11:06:57
  TRACK 506 AUDIO
    TITLE "LR_black_phrase_E_02_506"
    INDEX 01 11:07:62
  TRACK 507 AUDIO
    TITLE "LR_black_phrase_E_02_507"
    INDEX 01 11:08:69
  TRACK 508 AUDIO
    TITLE "LR_black_phrase_E_02_508"
    INDEX 01 11:09:24
  TRACK 509 AUDIO
    TITLE "LR_black_phrase_E_02_509"
    INDEX 01 11:11:17
  TRACK 510 AUDIO
    TITLE "LR_black_phrase_E_02_510"
    INDEX 01 11:11:70
  TRACK 511 AUDIO
    TITLE "LR_black_phrase_E_02_511"
    INDEX 01 11:13:63
  TRACK 512 AUDIO
    TITLE "LR_black_phrase_E_02_512"
    INDEX 01 11:14:64
  TRACK 513 AUDIO
    TITLE "LR_black_phrase_E_02_513"
    INDEX 01 11:16:12
  TRACK 514 AUDIO
    TITLE "LR_black_phrase_E_02_514"
    INDEX 01 11:16:41
  TRACK 515 AUDIO
    TITLE "LR_black_phrase_E_02_515"
    INDEX 01 11:18:60
  TRACK 516 AUDIO
    TITLE "LR_black_phrase_E_02_516"
    INDEX 01 11:19:40
  TRACK 517 AUDIO
    TITLE "LR_black_phrase_E_02_517"
    INDEX 01 11:21:56
  TRACK 518 AUDIO
    TITLE "LR_black_phrase_E_02_518"
    INDEX 01 11:22:62
  TRACK 519 AUDIO
    TITLE "LR_black_phrase_E_02_519"
    INDEX 01 11:24:02
  TRACK 520 AUDIO
    TITLE "LR_black_phrase_E_02_520"
    INDEX 01 11:24:29
  TRACK 521 AUDIO
    TITLE "LR_black_phrase_E_02_521"
    INDEX 01 11:26:57
  TRACK 522 AUDIO
    TITLE "LR_black_phrase_E_02_522"
    INDEX 01 11:27:37
  TRACK 523 AUDIO
    TITLE "LR_black_phrase_E_02_523"
    INDEX 01 11:29:66
  TRACK 524 AUDIO
    TITLE "LR_black_phrase_E_02_524"
    INDEX 01 11:30:71
  TRACK 525 AUDIO
    TITLE "LR_black_phrase_E_02_525"
    INDEX 01 11:32:03
  TRACK 526 AUDIO
    TITLE "LR_black_phrase_E_02_526"
    INDEX 01 11:32:37
  TRACK 527 AUDIO
    TITLE "LR_black_phrase_E_02_527"
    INDEX 01 11:34:67
  TRACK 528 AUDIO
    TITLE "LR_black_phrase_E_02_528"
    INDEX 01 11:35:45
  TRACK 529 AUDIO
    TITLE "LR_black_phrase_E_02_529"
    INDEX 01 11:38:02
  TRACK 530 AUDIO
    TITLE "LR_black_phrase_E_02_530"
    INDEX 01 11:39:05
  TRACK 531 AUDIO
    TITLE "LR_black_phrase_E_02_531"
    INDEX 01 11:40:26
  TRACK 532 AUDIO
    TITLE "LR_black_phrase_E_02_532"
    INDEX 01 11:40:56
  TRACK 533 AUDIO
    TITLE "LR_black_phrase_E_02_533"
    INDEX 01 11:42:62
  TRACK 534 AUDIO
    TITLE "LR_black_phrase_E_02_534"
    INDEX 01 11:43:42
  TRACK 535 AUDIO
    TITLE "LR_black_phrase_E_02_535"
    INDEX 01 11:45:49
  TRACK 536 AUDIO
    TITLE "LR_black_phrase_E_02_536"
    INDEX 01 11:46:54
  TRACK 537 AUDIO
    TITLE "LR_black_phrase_E_02_537"
    INDEX 01 11:47:67
  TRACK 538 AUDIO
    TITLE "LR_black_phrase_E_02_538"
    INDEX 01 11:48:22
  TRACK 539 AUDIO
    TITLE "LR_black_phrase_E_02_539"
    INDEX 01 11:50:32
  TRACK 540 AUDIO
    TITLE "LR_black_phrase_E_02_540"
    INDEX 01 11:51:12
  TRACK 541 AUDIO
    TITLE "LR_black_phrase_E_02_541"
    INDEX 01 11:53:23
  TRACK 542 AUDIO
    TITLE "LR_black_phrase_E_02_542"
    INDEX 01 11:54:24
  TRACK 543 AUDIO
    TITLE "LR_black_phrase_E_02_543"
    INDEX 01 11:55:49
  TRACK 544 AUDIO
    TITLE "LR_black_phrase_E_02_544"
    INDEX 01 11:55:71
  TRACK 545 AUDIO
    TITLE "LR_black_phrase_E_02_545"
    INDEX 01 11:58:32
  TRACK 546 AUDIO
    TITLE "LR_black_phrase_E_02_546"
    INDEX 01 11:59:02
  TRACK 547 AUDIO
    TITLE "LR_black_phrase_E_02_547"
    INDEX 01 12:01:40
  TRACK 548 AUDIO
    TITLE "LR_black_phrase_E_02_548"
    INDEX 01 12:02:34
  TRACK 549 AUDIO
    TITLE "LR_black_phrase_E_02_549"
    INDEX 01 12:03:66
  TRACK 550 AUDIO
    TITLE "LR_black_phrase_E_02_550"
    INDEX 01 12:04:11
  TRACK 551 AUDIO
    TITLE "LR_black_phrase_E_02_551"
    INDEX 01 12:06:30
  TRACK 552 AUDIO
    TITLE "LR_black_phrase_E_02_552"
    INDEX 01 12:06:75
  TRACK 553 AUDIO
    TITLE "LR_black_phrase_E_02_553"
    INDEX 01 12:09:16
  TRACK 554 AUDIO
    TITLE "LR_black_phrase_E_02_554"
    INDEX 01 12:10:19
  TRACK 555 AUDIO
    TITLE "LR_black_phrase_E_02_555"
    INDEX 01 12:11:33
  TRACK 556 AUDIO
    TITLE "LR_black_phrase_E_02_556"
    INDEX 01 12:11:62
  TRACK 557 AUDIO
    TITLE "LR_black_phrase_E_02_557"
    INDEX 01 12:14:27
  TRACK 558 AUDIO
    TITLE "LR_black_phrase_E_02_558"
    INDEX 01 12:15:07
  TRACK 559 AUDIO
    TITLE "LR_black_phrase_E_02_559"
    INDEX 01 12:17:47
  TRACK 560 AUDIO
    TITLE "LR_black_phrase_E_02_560"
    INDEX 01 12:18:52
  TRACK 561 AUDIO
    TITLE "LR_black_phrase_E_02_561"
    INDEX 01 12:19:75
  TRACK 562 AUDIO
    TITLE "LR_black_phrase_E_02_562"
    INDEX 01 12:20:24
  TRACK 563 AUDIO
    TITLE "LR_black_phrase_E_02_563"
    INDEX 01 12:23:36
  TRACK 564 AUDIO
    TITLE "LR_black_phrase_E_02_564"
    INDEX 01 12:24:08
  TRACK 565 AUDIO
    TITLE "LR_black_phrase_E_02_565"
    INDEX 01 12:27:20
  TRACK 566 AUDIO
    TITLE "LR_black_phrase_E_02_566"
    INDEX 01 12:28:15
  TRACK 567 AUDIO
    TITLE "LR_black_phrase_E_02_567"
    INDEX 01 12:29:25
  TRACK 568 AUDIO
    TITLE "LR_black_phrase_E_02_568"
    INDEX 01 12:29:52
  TRACK 569 AUDIO
    TITLE "LR_black_phrase_E_02_569"
    INDEX 01 12:32:29
  TRACK 570 AUDIO
    TITLE "LR_black_phrase_E_02_570"
    INDEX 01 12:33:07
  TRACK 571 AUDIO
    TITLE "LR_black_phrase_E_02_571"
    INDEX 01 12:35:63
  TRACK 572 AUDIO
    TITLE "LR_black_phrase_E_02_572"
    INDEX 01 12:36:62
  TRACK 573 AUDIO
    TITLE "LR_black_phrase_E_02_573"
    INDEX 01 12:37:71
  TRACK 574 AUDIO
    TITLE "LR_black_phrase_E_02_574"
    INDEX 01 12:38:20
  TRACK 575 AUDIO
    TITLE "LR_black_phrase_E_02_575"
    INDEX 01 12:40:40
  TRACK 576 AUDIO
    TITLE "LR_black_phrase_E_02_576"
    INDEX 01 12:41:12
  TRACK 577 AUDIO
    TITLE "LR_black_phrase_E_02_577"
    INDEX 01 12:43:21
  TRACK 578 AUDIO
    TITLE "LR_black_phrase_E_02_578"
    INDEX 01 12:44:34
  TRACK 579 AUDIO
    TITLE "LR_black_phrase_E_02_579"
    INDEX 01 12:45:51
  TRACK 580 AUDIO
    TITLE "LR_black_phrase_E_02_580"
    INDEX 01 12:45:73
  TRACK 581 AUDIO
    TITLE "LR_black_phrase_E_02_581"
    INDEX 01 12:48:16
  TRACK 582 AUDIO
    TITLE "LR_black_phrase_E_02_582"
    INDEX 01 12:48:65
  TRACK 583 AUDIO
    TITLE "LR_black_phrase_E_02_583"
    INDEX 01 12:51:09
  TRACK 584 AUDIO
    TITLE "LR_black_phrase_E_02_584"
    INDEX 01 12:52:12
  TRACK 585 AUDIO
    TITLE "LR_black_phrase_E_02_585"
    INDEX 01 12:53:45
  TRACK 586 AUDIO
    TITLE "LR_black_phrase_E_02_586"
    INDEX 01 12:53:74
  TRACK 587 AUDIO
    TITLE "LR_black_phrase_E_02_587"
    INDEX 01 12:56:22
  TRACK 588 AUDIO
    TITLE "LR_black_phrase_E_02_588"
    INDEX 01 12:56:74
  TRACK 589 AUDIO
    TITLE "LR_black_phrase_E_02_589"
    INDEX 01 12:59:22
  TRACK 590 AUDIO
    TITLE "LR_black_phrase_E_02_590"
    INDEX 01 13:00:25
  TRACK 591 AUDIO
    TITLE "LR_black_phrase_E_02_591"
    INDEX 01 13:01:48
  TRACK 592 AUDIO
    TITLE "LR_black_phrase_E_02_592"
    INDEX 01 13:02:07
  TRACK 593 AUDIO
    TITLE "LR_black_phrase_E_02_593"
    INDEX 01 13:04:56
  TRACK 594 AUDIO
    TITLE "LR_black_phrase_E_02_594"
    INDEX 01 13:05:36
  TRACK 595 AUDIO
    TITLE "LR_black_phrase_E_02_595"
    INDEX 01 13:08:11
  TRACK 596 AUDIO
    TITLE "LR_black_phrase_E_02_596"
    INDEX 01 13:09:14
  TRACK 597 AUDIO
    TITLE "LR_black_phrase_E_02_597"
    INDEX 01 13:10:31
  TRACK 598 AUDIO
    TITLE "LR_black_phrase_E_02_598"
    INDEX 01 13:10:57
  TRACK 599 AUDIO
    TITLE "LR_black_phrase_E_02_599"
    INDEX 01 13:13:24
  TRACK 600 AUDIO
    TITLE "LR_black_phrase_E_02_600"
    INDEX 01 13:14:04
  TRACK 601 AUDIO
    TITLE "LR_black_phrase_E_02_601"
    INDEX 01 13:16:50
